<?xml version="1.0" standalone="no"?>
<!DOCTYPE svg PUBLIC "-//W3C//DTD SVG 20010904//EN"
 "http://www.w3.org/TR/2001/REC-SVG-20010904/DTD/svg10.dtd">
<svg version="1.0" xmlns="http://www.w3.org/2000/svg"
 width="3000.000000pt" height="749.000000pt" viewBox="0 0 3000.000000 749.000000"
 preserveAspectRatio="xMidYMid meet">
<metadata>
Created by potrace 1.13, written by Peter Selinger 2001-2015
</metadata>
<g transform="translate(0.000000,749.000000) scale(0.100000,-0.100000)"
fill="#00833D" stroke="none">
<path d="M1393 7378 c-62 -3 -136 -12 -165 -18 -139 -33 -255 -70 -347 -112
-60 -28 -219 -122 -253 -150 l-27 -23 1014 -1020 1014 -1020 3 -1300 3 -1300
255 0 255 0 5 1750 5 1750 220 3 c414 6 691 -42 929 -162 205 -104 322 -228
382 -406 27 -80 27 -394 1 -493 -64 -239 -230 -452 -482 -618 -143 -94 -371
-196 -502 -224 -18 -3 -33 -8 -33 -11 0 -2 161 -165 358 -362 196 -196 935
-939 1641 -1650 706 -710 1289 -1292 1296 -1292 15 0 108 143 161 247 62 125
117 301 140 453 4 25 10 259 13 520 l6 475 628 3 627 2 0 165 c0 124 -3 167
-12 170 -7 2 -402 8 -878 12 l-865 8 0 630 0 630 875 5 875 5 0 163 0 162
-861 0 c-474 0 -869 3 -878 6 -14 5 -16 40 -15 318 1 171 5 424 8 561 l6 250
870 5 870 5 0 180 0 180 -622 0 c-342 1 -625 3 -628 7 -3 3 -10 72 -16 153
-25 384 -194 725 -488 989 -225 202 -551 340 -831 352 -173 8 -4428 10 -4557
2z m4529 -153 c73 -8 151 -20 173 -26 201 -57 356 -130 494 -234 236 -178 403
-434 470 -722 21 -92 46 -336 36 -353 -4 -6 -145 -10 -376 -10 l-369 0 0
-1730 0 -1730 363 0 c269 0 366 -3 375 -12 9 -9 12 -112 12 -402 0 -378 -9
-566 -31 -671 -27 -129 -111 -345 -133 -345 -16 0 -1286 1272 -1286 1289 0 7
30 47 68 88 37 41 79 89 95 108 l27 33 -317 314 c-373 368 -650 639 -895 878
-98 96 -178 177 -178 182 0 5 17 16 38 25 85 35 219 107 281 151 201 142 359
372 432 625 40 141 63 526 38 649 -34 170 -46 209 -97 317 -130 276 -394 491
-744 605 -208 67 -460 94 -968 103 -201 3 -463 2 -582 -2 l-218 -7 0 -524 c0
-437 -2 -524 -14 -524 -14 0 -1733 1727 -1737 1745 -6 27 221 129 356 159 44
10 94 22 110 26 17 4 1023 8 2237 9 1894 1 2225 -1 2340 -14z"/>
<path d="M453 6893 c-106 -136 -203 -354 -244 -548 -40 -184 -39 -133 -39
-2464 0 -2403 -1 -2323 50 -2526 51 -197 139 -377 259 -530 217 -276 538 -470
891 -538 80 -15 4679 -22 4775 -7 153 24 281 63 433 131 73 33 252 148 252
163 0 5 -181 189 -402 408 -222 220 -601 597 -844 840 l-441 440 -59 -49
c-120 -99 -323 -220 -477 -284 -166 -69 -325 -115 -509 -146 -141 -23 -492
-23 -633 0 -610 103 -1122 435 -1454 942 -117 179 -226 424 -267 595 -7 30
-17 73 -23 95 -36 138 -46 235 -46 460 0 248 3 271 60 520 59 254 200 545 370
763 31 39 55 76 53 81 -2 5 -379 388 -839 850 l-837 842 -29 -38z"/>
<path d="M24865 5900 c-126 -13 -243 -30 -317 -46 -40 -9 -84 -19 -98 -21
-106 -22 -348 -93 -415 -122 -22 -10 -62 -26 -90 -36 -90 -33 -344 -169 -433
-232 -313 -221 -520 -514 -641 -903 -48 -157 -49 -661 -2 -813 6 -18 22 -70
37 -117 48 -155 143 -335 242 -460 191 -242 502 -462 817 -580 212 -79 492
-146 715 -170 52 -6 129 -15 170 -20 41 -6 161 -10 267 -10 l191 0 6 87 c4 49
11 126 17 172 5 46 7 86 4 89 -3 3 -108 9 -233 13 -294 10 -423 27 -677 89
-409 100 -778 331 -964 604 -76 111 -162 321 -182 444 -53 322 -19 579 109
822 109 210 256 371 464 509 193 128 438 214 758 266 52 8 124 20 160 26 36 6
165 13 288 16 122 3 224 9 227 12 2 4 0 40 -5 81 -5 41 -12 128 -15 193 l-7
117 -161 -2 c-89 -1 -193 -4 -232 -8z"/>
<path d="M27850 5863 c-25 -57 -22 -51 -105 -231 -36 -78 -65 -144 -65 -147 0
-5 -23 -56 -99 -218 -23 -49 -41 -90 -41 -91 0 -2 -20 -46 -44 -97 -24 -52
-53 -114 -64 -139 -11 -25 -31 -70 -45 -100 -13 -30 -41 -91 -62 -135 -20 -44
-68 -145 -105 -225 -134 -286 -136 -292 -220 -475 -10 -22 -43 -93 -74 -158
-31 -65 -56 -120 -56 -121 0 -2 -24 -55 -54 -117 -30 -63 -65 -139 -79 -169
-14 -30 -41 -89 -60 -130 -19 -41 -45 -97 -57 -125 -12 -27 -40 -88 -62 -135
-22 -47 -69 -146 -103 -220 -49 -107 -115 -245 -143 -302 -2 -3 50 -34 115
-69 65 -34 137 -73 161 -86 23 -12 47 -23 51 -23 5 0 16 17 24 37 8 21 33 76
55 123 38 82 50 108 105 230 13 30 41 91 62 135 66 143 85 185 85 190 0 2 20
45 44 95 25 50 48 100 51 111 4 11 28 66 55 122 26 56 60 130 75 165 l28 62
781 0 781 0 47 -108 c26 -59 77 -174 113 -257 36 -82 70 -159 75 -170 18 -40
58 -132 105 -240 26 -60 63 -144 82 -185 19 -41 51 -113 70 -160 45 -111 63
-150 69 -150 2 0 44 19 92 43 187 92 292 148 292 156 0 4 -17 43 -38 87 -22
43 -46 95 -55 114 -8 19 -32 71 -52 115 -21 44 -49 105 -62 135 -14 30 -34 75
-45 100 -11 25 -33 72 -48 105 -58 124 -281 612 -328 715 -11 25 -37 81 -57
125 -21 44 -49 105 -62 135 -46 102 -65 145 -105 230 -22 47 -46 99 -53 115
-7 17 -30 66 -50 110 -33 71 -52 113 -100 220 -47 105 -67 150 -104 228 -23
49 -41 90 -41 92 0 2 -20 48 -45 101 -25 53 -45 98 -45 100 0 4 -22 52 -89
197 -23 49 -41 91 -41 93 0 2 -9 23 -19 47 -11 23 -33 73 -50 110 -17 38 -31
73 -31 78 0 5 -72 9 -170 9 l-170 0 -20 -47z m192 -570 c15 -32 36 -80 48
-108 13 -27 38 -84 57 -125 19 -41 46 -100 60 -130 35 -80 37 -85 93 -204 27
-59 50 -110 50 -112 0 -3 27 -61 60 -131 33 -69 60 -127 60 -129 0 -1 18 -42
40 -89 22 -47 40 -88 40 -90 0 -1 18 -42 40 -89 22 -47 40 -88 40 -91 0 -8
-1248 -6 -1253 3 -3 4 12 41 32 82 20 41 46 98 58 125 12 28 44 97 71 155 50
107 134 289 170 370 32 73 76 167 134 290 30 63 76 163 103 223 27 59 54 107
60 107 6 0 23 -26 37 -57z"/>
<path d="M8944 4148 l1 -1728 198 0 199 0 -4 808 -3 807 837 3 837 2 3 161 c2
88 1 163 -1 165 -2 2 -374 4 -827 4 -452 0 -829 3 -837 6 -14 5 -15 71 -11
547 3 298 7 552 10 565 l4 22 850 0 850 0 0 183 0 182 -1053 0 -1053 1 0
-1728z"/>
<path d="M11422 4150 l1 -1730 1074 0 1073 0 0 168 0 169 -542 6 c-298 4 -691
7 -873 7 l-332 0 -6 621 c-3 342 -3 627 0 635 4 12 142 14 879 14 l874 0 0
165 0 165 -868 0 c-535 0 -872 4 -878 9 -5 6 -7 222 -4 568 l5 558 873 3 872
2 0 183 0 182 -1074 3 -1074 3 0 -1731z"/>
<path d="M16894 5869 c-2 -4 1 -283 7 -620 9 -498 7 -1929 -5 -2759 l-1 -65
1098 -3 1097 -2 0 168 0 169 -562 6 c-310 4 -712 7 -894 7 l-332 0 -7 483 c-3
265 -5 550 -3 632 l3 150 873 3 872 2 -2 165 -3 165 -860 0 c-473 0 -865 4
-872 8 -9 6 -11 134 -5 567 l7 560 865 5 865 5 0 179 0 180 -1068 1 c-588 0
-1070 -2 -1073 -6z"/>
<path d="M19855 5846 c-33 -17 -114 -55 -179 -86 l-119 -55 4 -495 c6 -770 3
-2647 -5 -2722 l-7 -68 197 0 196 0 -6 438 c-3 240 -9 881 -12 1425 -6 881 -5
987 9 987 14 0 157 -175 620 -757 97 -123 255 -321 350 -440 290 -366 537
-687 959 -1248 165 -220 306 -406 313 -413 10 -11 42 1 174 65 l161 79 2 1660
1 1659 -189 0 -189 0 2 -245 c13 -1809 15 -2488 5 -2494 -12 -7 -21 2 -90 89
-22 28 -64 79 -94 116 -162 198 -267 329 -303 375 -22 28 -92 116 -156 195
-222 276 -777 976 -1085 1369 -50 63 -126 160 -170 216 -43 55 -128 164 -189
242 -60 78 -117 141 -125 140 -8 0 -42 -15 -75 -32z"/>
<path d="M25673 4150 l1 -1730 203 0 204 0 -7 88 c-7 103 -11 2388 -5 2967 l5
400 -201 3 -200 2 0 -1730z"/>
<path d="M14113 5862 l-93 -3 0 -1613 c0 -887 3 -1661 7 -1719 l6 -107 203 0
204 0 -6 328 c-3 180 -10 534 -15 787 -9 438 -5 1129 9 1705 l7 264 110 14
c184 22 508 2 670 -42 205 -55 365 -198 438 -394 19 -49 22 -77 21 -207 0
-136 -3 -157 -27 -227 -50 -145 -147 -277 -277 -377 -88 -68 -169 -116 -339
-200 -112 -57 -122 -64 -109 -79 26 -31 212 -247 244 -282 17 -19 55 -62 85
-96 30 -33 95 -107 144 -164 99 -113 234 -268 250 -286 6 -6 55 -62 110 -124
118 -133 322 -363 488 -548 65 -73 122 -132 126 -132 10 0 301 249 301 258 0
4 -89 100 -198 213 -226 235 -473 496 -553 584 -29 33 -56 62 -59 65 -24 23
-196 219 -280 320 -57 69 -108 127 -112 128 -21 9 -3 35 45 65 142 91 383 323
459 442 92 143 133 294 132 485 -1 240 -61 406 -211 577 -177 203 -444 316
-848 358 -119 12 -643 16 -932 7z"/>
<path d="M24657 1566 c-31 -46 -53 -87 -50 -90 4 -3 26 -6 49 -6 40 0 50 6
134 82 49 46 90 86 90 90 0 5 -38 8 -83 8 l-84 0 -56 -84z"/>
<path d="M18980 1545 l0 -75 85 0 86 0 -3 73 -3 72 -82 3 -83 3 0 -76z"/>
<path d="M22440 1608 c-14 -6 -42 -17 -64 -26 -64 -27 -147 -119 -181 -203
-28 -70 -29 -82 -30 -219 0 -162 13 -217 69 -301 64 -95 151 -145 278 -162
135 -18 253 19 338 107 41 41 83 120 95 174 l7 33 -88 -3 -87 -3 -24 -45 c-47
-88 -95 -120 -183 -120 -63 0 -117 26 -163 80 -48 57 -62 113 -62 252 1 109 3
120 30 174 17 31 47 71 68 88 37 30 43 31 130 31 109 0 139 -15 178 -92 l25
-48 79 -3 c109 -4 109 -4 84 65 -39 104 -120 182 -226 216 -59 19 -232 22
-273 5z"/>
<path d="M23672 1169 l3 -451 85 0 85 0 3 451 2 451 -90 0 -90 0 2 -451z"/>
<path d="M26887 1614 c-4 -4 -7 -38 -7 -76 l0 -69 83 3 82 3 0 70 0 70 -75 3
c-42 1 -79 0 -83 -4z"/>
<path d="M7890 1160 l0 -450 317 2 316 3 0 70 0 70 -224 5 -224 5 -5 370 -5
370 -87 3 -88 3 0 -451z"/>
<path d="M10505 1598 c-3 -7 -4 -209 -3 -448 l3 -435 78 -3 77 -3 0 35 c0 48
12 51 52 13 90 -85 271 -73 352 24 37 44 71 120 87 192 10 47 10 73 -1 140
-20 124 -71 205 -154 243 -95 44 -233 28 -290 -35 -41 -45 -46 -31 -46 134 l0
155 -75 0 c-51 0 -77 -4 -80 -12z m385 -370 c62 -32 89 -89 90 -184 0 -129
-51 -204 -142 -211 -101 -8 -162 56 -175 180 -11 110 29 196 104 223 53 19 72
17 123 -8z"/>
<path d="M15590 1461 c0 -98 -2 -101 -66 -101 l-34 0 0 -50 0 -50 34 0 c69 0
66 12 66 -245 0 -214 1 -234 19 -257 28 -35 84 -50 176 -46 l80 3 3 51 3 51
-47 6 c-73 8 -74 12 -74 233 0 216 -3 209 78 202 l37 -3 0 55 0 55 -37 -3
c-74 -7 -78 -2 -78 99 l0 89 -80 0 -80 0 0 -89z"/>
<path d="M12055 1381 c-147 -41 -235 -168 -235 -341 0 -126 50 -231 136 -289
64 -42 113 -54 215 -54 72 1 96 5 148 28 98 44 157 128 181 256 28 152 -55
327 -180 382 -50 22 -212 33 -265 18z m168 -135 c101 -42 141 -206 80 -327
-46 -88 -130 -117 -218 -74 -64 32 -89 87 -89 202 0 87 2 96 30 136 49 70 124
94 197 63z"/>
<path d="M13534 1380 c-51 -7 -84 -29 -120 -75 -14 -19 -30 -35 -35 -35 -4 0
-9 21 -11 48 l-3 47 -77 3 -78 3 0 -331 0 -331 83 3 82 3 5 205 c4 176 8 210
23 233 29 44 75 67 135 67 l52 0 0 79 c0 44 -3 81 -7 84 -5 2 -27 1 -49 -3z"/>
<path d="M16755 1381 c-63 -17 -102 -40 -143 -85 -71 -77 -86 -122 -86 -256
-1 -127 12 -166 75 -243 115 -140 416 -134 525 10 55 73 76 144 72 248 -4 104
-31 175 -93 244 -55 61 -111 83 -225 87 -52 2 -108 0 -125 -5z m193 -148 c15
-11 38 -40 52 -64 21 -38 25 -56 25 -129 -1 -106 -27 -164 -90 -195 -127 -63
-245 32 -245 196 0 103 40 179 110 208 37 16 117 7 148 -16z"/>
<path d="M18245 1383 c-53 -7 -99 -33 -128 -74 -40 -55 -57 -52 -57 11 l0 50
-75 0 -75 0 2 -327 3 -328 78 -3 c57 -2 77 0 78 10 0 7 0 72 -1 143 -1 169 13
272 43 303 35 38 72 52 132 52 l56 0 -3 82 c-2 45 -7 82 -13 83 -5 1 -23 0
-40 -2z"/>
<path d="M20090 1377 c-112 -32 -182 -108 -214 -235 -20 -75 -20 -114 -1 -197
23 -99 81 -177 164 -220 51 -26 159 -37 237 -25 110 18 183 69 229 164 53 109
53 251 0 356 -59 116 -133 161 -278 166 -56 3 -110 -1 -137 -9z m167 -128 c74
-28 114 -100 114 -204 0 -113 -44 -191 -120 -214 -77 -23 -152 13 -192 91 -27
53 -26 183 1 243 36 79 118 114 197 84z"/>
<path d="M29270 1377 c-119 -34 -192 -122 -220 -269 -23 -113 10 -233 85 -316
109 -121 350 -131 485 -20 63 52 109 166 110 268 0 140 -67 263 -173 317 -43
22 -68 27 -147 30 -58 2 -113 -2 -140 -10z m209 -146 c52 -37 72 -89 72 -186
0 -131 -36 -189 -138 -219 -30 -10 -103 11 -131 37 -45 42 -62 90 -62 177 0
100 27 163 86 198 50 29 126 26 173 -7z"/>
<path d="M9333 1361 c-22 -9 -50 -24 -62 -35 -27 -24 -58 -86 -63 -122 l-3
-29 78 -3 c73 -3 78 -1 86 20 18 48 48 63 123 63 64 0 72 -2 94 -28 13 -15 24
-35 24 -43 0 -21 -44 -62 -72 -68 -12 -2 -68 -11 -124 -20 -112 -18 -152 -34
-188 -76 -35 -42 -49 -94 -43 -157 7 -63 22 -91 74 -130 31 -24 47 -28 114
-32 84 -3 133 13 196 65 l32 26 10 -23 c5 -13 12 -32 15 -41 5 -15 18 -18 89
-18 46 0 87 3 90 6 3 4 -3 18 -13 32 -19 23 -20 41 -20 245 0 141 -4 234 -12
260 -27 89 -112 128 -281 126 -69 -1 -115 -6 -144 -18z m276 -370 c-1 -64 -22
-112 -61 -144 -74 -60 -187 -43 -201 29 -13 69 33 112 143 134 36 7 71 16 79
20 26 14 41 -1 40 -39z"/>
<path d="M14393 1362 c-70 -29 -114 -83 -127 -154 l-7 -38 79 0 c77 0 80 1 86
25 22 89 236 84 236 -5 0 -39 -29 -67 -77 -75 -208 -31 -251 -45 -302 -97 -35
-36 -45 -75 -39 -156 8 -108 76 -162 204 -162 58 0 77 5 121 30 28 16 54 34
58 40 3 5 15 10 26 10 13 0 19 -7 19 -23 0 -39 18 -47 107 -47 87 0 98 7 67
42 -14 15 -18 54 -22 260 -6 297 -8 304 -122 347 -72 27 -243 29 -307 3z m267
-390 c0 -39 -6 -67 -20 -89 -37 -61 -138 -91 -200 -60 -31 15 -47 70 -31 109
15 38 49 58 142 78 44 10 83 21 86 24 14 14 23 -10 23 -62z"/>
<path d="M25780 1356 c-19 -13 -44 -33 -54 -45 -28 -31 -36 -26 -36 19 l0 40
-80 0 -80 0 2 -327 3 -328 78 -3 77 -3 0 208 c1 194 2 211 23 252 30 61 65 84
127 85 43 1 54 -3 82 -32 l33 -32 5 -238 5 -237 83 -3 82 -3 0 254 c0 321 -8
350 -106 396 -65 31 -195 29 -244 -3z"/>
<path d="M27937 1356 c-63 -31 -101 -68 -129 -125 -29 -61 -46 -179 -36 -261
20 -163 95 -246 241 -270 120 -19 226 13 293 89 24 27 74 121 74 140 0 7 -31
11 -83 11 l-84 0 -15 -39 c-20 -50 -57 -74 -114 -74 -92 0 -144 76 -143 208 0
101 22 161 68 192 65 44 170 18 193 -47 l10 -30 84 0 c78 0 84 1 84 21 0 36
-50 128 -84 154 -54 41 -110 55 -215 55 -80 -1 -104 -4 -144 -24z"/>
<path d="M18982 1043 l3 -328 80 0 80 0 3 328 2 327 -85 0 -85 0 2 -327z"/>
<path d="M24602 1043 l3 -328 80 0 80 0 3 328 2 327 -85 0 -85 0 2 -327z"/>
<path d="M26882 1043 l3 -328 80 0 80 0 0 325 0 325 -83 3 -82 3 2 -328z"/>
</g>
</svg>
